<svg width="158" height="63" viewBox="0 0 158 63" fill="none" xmlns="http://www.w3.org/2000/svg">
<g clip-path="url(#clip0_198_523)">
<path d="M119.812 22.5691L119.811 22.5677L119.81 22.5662C119.811 22.5674 119.812 22.5679 119.812 22.5691ZM119.812 22.5691L119.813 22.5706L119.814 22.5714C119.813 22.5706 119.813 22.5698 119.812 22.5691ZM6.10897 3.85363C6.10961 3.85435 6.11025 3.85506 6.11089 3.85578ZM6.10897 3.85363L6.11223 3.85728ZM6.11089 3.85578C6.11134 3.85628 6.11178 3.85678 6.11223 3.85728ZM6.11089 3.85578C6.11134 3.85628 6.11178 3.85678 6.11223 3.85728ZM6.11089 3.85578C6.11134 3.85628 6.11178 3.85678 6.11223 3.85728ZM126.818 33.6167C122.62 31.7808 118.803 28.6261 116.437 24.7149C116.432 24.7071 116.427 24.6987 116.421 24.6897C116.413 24.6759 116.404 24.6604 116.394 24.6434C116.381 24.6219 116.367 24.5978 116.353 24.5716C116.304 24.4834 116.232 24.3447 116.167 24.1744C116.108 24.0217 116.013 23.7387 115.995 23.3859C115.977 23.0319 116.031 22.3813 116.54 21.807C117.026 21.2587 117.63 21.1207 117.936 21.0824C118.258 21.042 118.533 21.0746 118.69 21.0998C118.862 21.1276 119.007 21.1662 119.102 21.1943C119.152 21.2091 119.195 21.2231 119.228 21.2345C119.237 21.2375 119.245 21.2403 119.253 21.2429C119.26 21.2455 119.267 21.2479 119.273 21.2502L119.291 21.2566L119.296 21.2586C124.875 23.3249 130.844 23.5171 137.118 23.6258C137.154 23.6264 137.189 23.628 137.225 23.6305C141.963 23.9666 146.723 23.7815 151.421 23.0787L151.445 23.0753C152.107 22.9844 152.78 23.0942 153.378 23.3897C153.976 23.6852 154.47 24.1522 154.8 24.7292C155.13 25.3062 155.282 25.9677 155.236 26.6298C155.19 27.2919 154.949 27.9266 154.543 28.4529L154.538 28.4584L152.681 30.8436C147.399 38.3574 146.088 48.296 144.926 57.9737C144.925 57.9834 144.924 57.9938 144.923 58.0048C144.918 58.0496 144.911 58.1066 144.9 58.1723C144.88 58.2953 144.842 58.4879 144.767 58.7043C144.699 58.8999 144.554 59.2515 144.254 59.5842C143.913 59.9607 143.343 60.332 142.581 60.332C141.807 60.332 141.22 59.9488 140.869 59.5334C140.567 59.1752 140.437 58.801 140.379 58.6012C140.315 58.3776 140.288 58.1802 140.275 58.0563C140.269 57.9949 140.265 57.9411 140.263 57.8977C139.702 51.8573 139.606 45.6821 140.475 39.5474C119.461 53.6119 93.2228 55.5573 68.6425 49.4C42.4658 42.8428 17.8872 27.0379 3.03376 6.40889C2.99842 6.36461 2.95598 6.30889 2.91018 6.24312C2.81692 6.10921 2.68065 5.89245 2.57078 5.61365C2.46454 5.34409 2.33817 4.90358 2.39841 4.37077C2.46523 3.77983 2.74675 3.22507 3.22131 2.80876C4.39308 1.78079 5.7188 2.32466 6.07843 2.50191C6.33021 2.62601 6.52996 2.76499 6.65717 2.86138C6.72422 2.9122 6.78007 2.95803 6.82272 2.99442C6.84421 3.01277 6.86283 3.02912 6.87833 3.04299L6.89937 3.06202L6.90819 3.07012L6.91217 3.07381L6.91405 3.07556L6.91497 3.07641C6.91534 3.07675 6.91571 3.0771 6.1488 3.89948C6.14879 3.89946 6.14882 3.89949 6.1488 3.89948L6.91586 3.07724C6.95393 3.11276 6.9906 3.14974 7.02578 3.18811C15.4315 12.3558 27.0559 20.541 38.9817 26.7874C50.9154 33.0379 62.9961 37.2664 72.2493 38.6291C94.9127 41.9599 110.556 39.8251 128.408 34.2421C127.87 34.0538 127.339 33.8447 126.818 33.6167ZM119.817 22.5756C119.817 22.5753 119.817 22.5758 119.817 22.5756ZM5.61336 4.47357L6.1488 3.89948C6.14879 3.89946 6.14882 3.89949 6.1488 3.89948C6.00078 4.0582 5.82405 4.24769 5.61336 4.47357Z" fill="#43B7FF"/>
<path d="M119.812 22.5691L119.811 22.5677L119.81 22.5662C119.811 22.5674 119.812 22.5679 119.812 22.5691ZM119.812 22.5691L119.813 22.5706L119.814 22.5714C119.813 22.5706 119.813 22.5698 119.812 22.5691ZM6.10897 3.85363L6.10992 3.8547M6.10897 3.85363C6.10961 3.85435 6.11025 3.85506 6.11089 3.85578C6.11134 3.85628 6.11178 3.85678 6.11223 3.85728L6.10897 3.85363ZM6.1488 3.89948C6.91571 3.0771 6.91534 3.07675 6.91497 3.07641L6.91405 3.07556L6.91217 3.07381L6.90819 3.07012L6.89937 3.06202L6.87833 3.04299C6.86283 3.02912 6.84421 3.01277 6.82272 2.99442C6.78007 2.95803 6.72422 2.9122 6.65717 2.86138C6.52996 2.76499 6.33021 2.62601 6.07843 2.50191C5.7188 2.32466 4.39308 1.78079 3.22131 2.80876C2.74675 3.22507 2.46523 3.77983 2.39841 4.37077C2.33817 4.90358 2.46454 5.34409 2.57078 5.61365C2.68065 5.89245 2.81692 6.10921 2.91018 6.24312C2.95598 6.30889 2.99842 6.36461 3.03376 6.40889C17.8872 27.0379 42.4658 42.8428 68.6425 49.4C93.2228 55.5573 119.461 53.6119 140.475 39.5474C139.606 45.6821 139.702 51.8573 140.263 57.8977C140.265 57.9411 140.269 57.9949 140.275 58.0563C140.288 58.1802 140.315 58.3776 140.379 58.6012C140.437 58.801 140.567 59.1752 140.869 59.5334C141.22 59.9488 141.807 60.332 142.581 60.332C143.343 60.332 143.913 59.9607 144.254 59.5842C144.554 59.2515 144.699 58.8999 144.767 58.7043C144.842 58.4879 144.88 58.2953 144.9 58.1723C144.911 58.1066 144.918 58.0496 144.923 58.0048C144.924 57.9938 144.925 57.9834 144.926 57.9737C146.088 48.296 147.399 38.3574 152.681 30.8436L154.538 28.4584L154.543 28.4529C154.949 27.9266 155.19 27.2919 155.236 26.6298C155.282 25.9677 155.13 25.3062 154.8 24.7292C154.47 24.1522 153.976 23.6852 153.378 23.3897C152.78 23.0942 152.107 22.9844 151.445 23.0753L151.421 23.0787C146.723 23.7815 141.963 23.9666 137.225 23.6305C137.189 23.628 137.154 23.6264 137.118 23.6258C130.844 23.5171 124.875 23.3249 119.296 21.2586L119.291 21.2566L119.273 21.2502C119.267 21.2479 119.26 21.2455 119.253 21.2429C119.245 21.2403 119.237 21.2375 119.228 21.2345C119.195 21.2231 119.152 21.2091 119.102 21.1943C119.007 21.1662 118.862 21.1276 118.69 21.0998C118.533 21.0746 118.258 21.042 117.936 21.0824C117.63 21.1207 117.026 21.2587 116.54 21.807C116.031 22.3813 115.977 23.0319 115.995 23.3859C116.013 23.7387 116.108 24.0217 116.167 24.1744C116.232 24.3447 116.304 24.4834 116.353 24.5716C116.367 24.5978 116.381 24.6219 116.394 24.6434C116.404 24.6604 116.413 24.6759 116.421 24.6897C116.427 24.6987 116.432 24.7071 116.437 24.7149C118.803 28.6261 122.62 31.7808 126.818 33.6167C127.339 33.8447 127.87 34.0538 128.408 34.2421C110.556 39.8251 94.9127 41.9599 72.2493 38.6291C62.9961 37.2664 50.9154 33.0379 38.9817 26.7874C27.0559 20.541 15.4315 12.3558 7.02578 3.18811C6.9906 3.14974 6.95393 3.11276 6.91586 3.07724L6.1488 3.89948ZM6.1488 3.89948C6.14882 3.89949 6.14879 3.89946 6.1488 3.89948ZM6.1488 3.89948L5.61336 4.47357C5.82405 4.24769 6.00078 4.0582 6.1488 3.89948ZM119.817 22.5756C119.817 22.5758 119.817 22.5753 119.817 22.5756Z" stroke="white" stroke-width="4" stroke-linejoin="round"/>
</g>
<defs>
<clipPath id="clip0_198_523">
<rect width="158" height="63" fill="white"/>
</clipPath>
</defs>
</svg>
