<svg width="24" height="25" viewBox="0 0 24 25" fill="none" xmlns="http://www.w3.org/2000/svg">
<path d="M18.7099 8.04189C18.617 7.94816 18.5064 7.87377 18.3845 7.823C18.2627 7.77223 18.132 7.74609 17.9999 7.74609C17.8679 7.74609 17.7372 7.77223 17.6154 7.823C17.4935 7.87377 17.3829 7.94816 17.29 8.04189L9.83995 15.5019L6.70995 12.3619C6.61343 12.2687 6.49949 12.1953 6.37463 12.1461C6.24978 12.0969 6.11645 12.0728 5.98227 12.0751C5.84809 12.0774 5.71568 12.1062 5.5926 12.1597C5.46953 12.2132 5.35819 12.2904 5.26495 12.3869C5.17171 12.4834 5.0984 12.5974 5.04919 12.7222C4.99999 12.8471 4.97586 12.9804 4.97818 13.1146C4.9805 13.2488 5.00923 13.3812 5.06272 13.5042C5.11622 13.6273 5.19343 13.7387 5.28995 13.8319L9.12995 17.6719C9.22291 17.7656 9.33351 17.84 9.45537 17.8908C9.57723 17.9416 9.70794 17.9677 9.83995 17.9677C9.97196 17.9677 10.1027 17.9416 10.2245 17.8908C10.3464 17.84 10.457 17.7656 10.55 17.6719L18.7099 9.51189C18.8115 9.41825 18.8925 9.3046 18.9479 9.1781C19.0033 9.0516 19.0319 8.91499 19.0319 8.77689C19.0319 8.63879 19.0033 8.50219 18.9479 8.37569C18.8925 8.24919 18.8115 8.13553 18.7099 8.04189Z" fill="#43B7FF"/>
</svg>
