<svg width="24" height="25" viewBox="0 0 24 25" fill="none" xmlns="http://www.w3.org/2000/svg">
<path d="M19.44 13.6874C19.22 13.6874 18.99 13.6174 18.77 13.5674C18.3245 13.4692 17.8866 13.3389 17.46 13.1774C16.9961 13.0086 16.4861 13.0174 16.0283 13.202C15.5704 13.3866 15.1971 13.734 14.98 14.1774L14.76 14.6274C13.786 14.0855 12.891 13.4126 12.1 12.6274C11.3147 11.8364 10.6418 10.9414 10.1 9.96737L10.52 9.68737C10.9633 9.47028 11.3108 9.0969 11.4954 8.63906C11.68 8.18122 11.6888 7.67128 11.52 7.20737C11.3612 6.77979 11.2309 6.34217 11.13 5.89737C11.08 5.67737 11.04 5.44737 11.01 5.21737C10.8885 4.51299 10.5196 3.87511 9.9696 3.41861C9.4196 2.9621 8.72467 2.71698 8.00998 2.72737H5.00998C4.57901 2.72332 4.15223 2.81218 3.75869 2.9879C3.36515 3.16362 3.01409 3.42206 2.72941 3.74565C2.44473 4.06924 2.23311 4.45036 2.10897 4.86308C1.98482 5.2758 1.95106 5.71043 2.00998 6.13737C2.54272 10.3267 4.45601 14.2192 7.44763 17.2C10.4393 20.1808 14.3387 22.0799 18.53 22.5974H18.91C19.6474 22.5984 20.3594 22.3279 20.91 21.8374C21.2263 21.5544 21.4791 21.2075 21.6514 20.8197C21.8238 20.4318 21.9119 20.0118 21.91 19.5874V16.5874C21.8977 15.8928 21.6448 15.2239 21.1943 14.695C20.7439 14.1661 20.1238 13.81 19.44 13.6874ZM19.94 19.6874C19.9398 19.8294 19.9094 19.9697 19.8508 20.099C19.7921 20.2283 19.7066 20.3437 19.6 20.4374C19.4886 20.5344 19.358 20.6068 19.2167 20.6499C19.0754 20.6929 18.9266 20.7057 18.78 20.6874C15.0349 20.2072 11.5562 18.4939 8.89269 15.8177C6.22917 13.1415 4.53239 9.65471 4.06998 5.90737C4.05406 5.76089 4.06801 5.6127 4.11098 5.47176C4.15395 5.33082 4.22505 5.20006 4.31998 5.08737C4.41369 4.9807 4.52904 4.89521 4.65836 4.83659C4.78767 4.77796 4.92799 4.74755 5.06998 4.74737H8.06998C8.30253 4.74219 8.5296 4.81825 8.71212 4.96244C8.89464 5.10663 9.02119 5.30994 9.06998 5.53737C9.10998 5.8107 9.15998 6.0807 9.21998 6.34737C9.3355 6.87451 9.48924 7.39255 9.67998 7.89737L8.27998 8.54737C8.16028 8.60229 8.0526 8.68031 7.96314 8.77696C7.87367 8.87361 7.80418 8.98698 7.75865 9.11056C7.71312 9.23414 7.69245 9.3655 7.69783 9.49709C7.7032 9.62868 7.73452 9.75791 7.78998 9.87737C9.22918 12.9601 11.7072 15.4382 14.79 16.8774C15.0334 16.9774 15.3065 16.9774 15.55 16.8774C15.6747 16.8328 15.7893 16.7638 15.8871 16.6746C15.985 16.5853 16.0641 16.4775 16.12 16.3574L16.74 14.9574C17.2569 15.1422 17.7846 15.2959 18.32 15.4174C18.5866 15.4774 18.8566 15.5274 19.13 15.5674C19.3574 15.6162 19.5607 15.7427 19.7049 15.9252C19.8491 16.1077 19.9252 16.3348 19.92 16.5674L19.94 19.6874Z" fill="#43B7FF"/>
</svg>
