<svg height="512" viewBox="0 0 24 24" width="512" xmlns="http://www.w3.org/2000/svg"><g id="Layer_2" data-name="Layer 2"><rect fill="#376cfb" height="13.5" rx=".75" width="5.5" x="17.25" y="9.25"/><rect fill="#376cfb" height="9.5" rx=".75" width="5.5" x="9.25" y="13.25"/><rect fill="#4294ff" height="7.5" rx=".75" width="5.5" x="1.25" y="15.25"/><g fill="#2945e8"><path d="m3 14a1 1 0 0 1 -.3-1.95 43 43 0 0 0 8.79-3.91 43.22 43.22 0 0 0 8.8-6.84 1 1 0 0 1 .71-.3 1 1 0 0 1 .7.29 1 1 0 0 1 0 1.41 44.87 44.87 0 0 1 -9.2 7.16 44.65 44.65 0 0 1 -9.2 4.14 1 1 0 0 1 -.3 0z"/><path d="m21 7a1 1 0 0 1 -1-1v-3h-3a1 1 0 0 1 0-2h4a1 1 0 0 1 1 1v4a1 1 0 0 1 -1 1z"/></g></g></svg>