<svg width="20" height="20" viewBox="0 0 20 20" fill="none" xmlns="http://www.w3.org/2000/svg">
<path d="M10.0001 1.66699C5.41675 1.66699 1.66675 5.41699 1.66675 10.0003C1.66675 14.5837 5.41675 18.3337 10.0001 18.3337C14.5834 18.3337 18.3334 14.5837 18.3334 10.0003C18.3334 5.41699 14.5834 1.66699 10.0001 1.66699ZM13.5001 8.58366L9.50008 12.5837C9.16675 12.917 8.66675 12.917 8.33342 12.5837L6.50008 10.7503C6.16675 10.417 6.16675 9.91699 6.50008 9.58366C6.83342 9.25033 7.33342 9.25033 7.66675 9.58366L8.91675 10.8337L12.3334 7.41699C12.6667 7.08366 13.1667 7.08366 13.5001 7.41699C13.8334 7.75033 13.8334 8.25033 13.5001 8.58366Z" fill="#43B7FF"/>
</svg>
