<svg id="Capa_1" enable-background="new 0 0 512 512" height="512" viewBox="0 0 512 512" width="512" xmlns="http://www.w3.org/2000/svg"><g><path d="m449.715 360.823c-6.995 21.531-.01 50.397-13.052 68.322-13.176 18.1-42.876 20.315-60.976 33.491-17.925 13.042-29.134 40.672-50.664 47.667-20.779 6.748-45.998-8.798-69.022-8.798-7.386 0-14.989 1.597-22.612 3.554-62.986-113.12-62.986-299.244-1.267-414.69 8.035 2.102 16.081 3.884 23.88 3.884 23.025 0 48.243-15.545 69.022-8.798 1.288.422 2.545.917 3.77 1.473l-6.46 11.853c-27.66 4.667-46.571 27.509-61.324 42.499-11.651 4.636-18.783 12.561-21.42 24.851-2.679 12.465.468 24.082 9.452 33.137 18.564 18.626 43.168 29.537 69.644 29.516 32.471.247 64.663-17.74 73.955-50.077l34.431-21.211c3.698 2.555 6.974 5.522 9.591 9.117 13.042 17.925 6.057 46.791 13.052 68.322 6.748 20.778 6.748 105.109 0 125.888z" fill="#8ce09f"/><path d="m427.072 157.496-31.894 22.561c-9.292 32.337-43.772 51.756-76.244 51.509-26.476.021-53.405-11.796-71.968-30.421-8.983-9.055-12.743-21.891-10.065-34.357 2.637-12.29 11.136-22.334 22.788-26.97 14.752-14.989 32.616-38.127 60.276-42.794l8.829-10.096c19.13 8.777 30.04 33.934 46.894 46.193 14.503 10.56 36.457 14.083 51.384 24.375z" fill="#55d47b"/><path d="m233.387 505.059c-16.133 4.121-32.296 9.828-46.41 5.244-21.531-6.995-32.739-34.624-50.664-47.667-18.1-13.176-47.8-15.391-60.976-33.491-13.042-17.925-6.057-46.791-13.052-68.322-6.748-20.779-6.748-105.11 0-125.888 6.995-21.531.01-50.397 13.052-68.322 13.176-18.1 42.876-20.315 60.976-33.491 17.925-13.042 29.134-40.682 50.664-47.667 13.743-4.461 29.432.824 45.143 4.914-50.643 117.719-47.501 299.453 1.267 414.69z" fill="#55d47b"/><path d="m412.598 297.879c0 86.484-70.114 156.598-156.598 156.598-14.371 0-28.299-1.937-41.516-5.573-35.852-84.712-35.519-206.983-1.566-301.617 13.822-3.955 28.468-6.049 43.535-6.006-7.744 4.925-14.474 13.724-16.864 24.85-2.679 12.465.137 24.745 9.12 33.801 18.564 18.626 43.5 28.873 69.976 28.853 23.2.175 46.098-8.125 62.997-24.333 19.419 26.084 30.916 58.421 30.916 93.427z" fill="#fff4e5"/><path d="m214.484 448.903c-66.344-18.182-115.082-78.912-115.082-151.024 0-71.536 47.976-131.884 113.516-150.592-24.251 93.695-22.798 209.106 1.566 301.616z" fill="#ffe0b7"/><path d="m381.682 204.451c-15.329 17.431-39.549 27.29-62.748 27.114-26.476.021-53.405-11.796-71.968-30.421-8.983-9.055-12.743-21.891-10.065-34.357 2.39-11.126 9.57-20.408 19.553-25.507 51.282.145 96.775 24.952 125.228 63.171z" fill="#ffe0b7"/><path d="m509.579 346.441c5.728 7.149.649 17.75-8.509 17.75h-301.874c-10.588-39.226-11.834-88.756-.803-132.626h302.677c9.158 0 14.237 10.601 8.509 17.75l-38.982 48.563z" fill="#83deff"/><path d="m199.196 364.191h-188.266c-9.158 0-14.237-10.601-8.509-17.75l38.982-48.563-38.982-48.562c-5.728-7.149-.649-17.75 8.509-17.75h187.462c-4.203 43.721-3.863 89.09.804 132.625z" fill="#2ecefb"/><path d="m281.392 328.924-25.074-66.443c-1.337-3.501-4.683-5.803-8.429-5.798-3.741-.004-7.081 2.288-8.423 5.78l-25.304 66.44c-1.474 3.871.468 8.204 4.339 9.678 3.873 1.474 8.204-.469 9.678-4.339l4.462-11.716h30.303l4.413 11.695c1.459 3.914 5.89 5.823 9.665 4.369 3.877-1.463 5.833-5.791 4.37-9.666zm-43.037-21.399 9.508-24.965 9.421 24.965z" fill="#495560"/><g><path d="m306.823 339.072c-4.142 0-7.5-3.358-7.5-7.5v-67.263c0-3.282 2.134-6.183 5.268-7.16 3.134-.976 6.538.198 8.403 2.898l33.348 48.29-.426-44.082c-.04-4.142 3.285-7.532 7.427-7.572 4.134-.043 7.535 3.284 7.572 7.427l.63 65.118c0 4.201-2.326 7.595-5.927 8.72-3.523 1.101-7.244-.281-9.484-3.518l-31.81-46.063v43.204c-.001 4.143-3.359 7.501-7.501 7.501z" fill="#495560"/></g><g><path d="m389.483 339.072c-1.976 0-3.873-.78-5.278-2.171-1.418-1.405-2.218-3.317-2.222-5.313l-.132-65.396c-.004-1.992.784-3.903 2.191-5.313s3.317-2.202 5.309-2.202h18.521c20.282 0 33.909 16.154 33.909 40.198 0 22.872-13.978 39.716-33.236 40.053l-19.004.145c-.02-.001-.039-.001-.058-.001zm7.383-65.396.102 50.338 11.389-.087c12.704-.222 18.424-12.744 18.424-25.054 0-12.181-4.967-25.198-18.909-25.198h-11.006z" fill="#495560"/></g><path d="m116.127 292.88c2.626-3.738 4.174-8.286 4.174-13.19 0-12.686-10.321-23.006-23.006-23.006h-19.575c-4.142 0-7.5 3.358-7.5 7.5v67.389c0 1.995.795 3.908 2.208 5.315 1.406 1.4 3.309 2.185 5.292 2.185.035 0 18.032-.08 22.993-.08 14.138 0 25.639-11.501 25.639-25.639 0-8.357-4.019-15.791-10.225-20.474zm-18.832-21.197c4.415 0 8.006 3.592 8.006 8.006s-3.592 8.006-8.006 8.006l-12.075.019v-16.031zm3.418 52.309c-2.837 0-9.924.026-15.493.048v-21.308l15.493-.018c5.867 0 10.639 4.772 10.639 10.639s-4.772 10.639-10.639 10.639z" fill="#495560"/><path d="m176.116 306.028c11.448-2.618 19.991-12.53 19.991-24.331 0-13.792-11.666-25.014-26.004-25.014h-17.908c-4.164 0-7.522 3.358-7.522 7.5v67.389c0 4.142 3.358 7.5 7.5 7.5s7.5-3.358 7.5-7.5v-21.523l23.304 26.478c2.745 3.118 7.488 3.404 10.585.675 3.109-2.736 3.412-7.476.675-10.585zm-6.013-34.345c5.965 0 11.004 4.585 11.004 10.014 0 5.428-5.04 10.014-11.004 10.014l-10.326.037-.059-20.064h10.385z" fill="#495560"/><path d="m358.013 138.649c-6.847-7.57-16.057-11.707-25.497-12.232-5.666-.315-11.418.727-16.785 2.95-24.317 10.074-32.867 34.218-49.544 40.612-5.47 2.097-6.934 9.16-2.807 13.317 20.678 20.831 60.184 33.352 89.969 9.678 8.87-7.05 13.701-17.349 14.173-27.839.424-9.41-2.659-18.975-9.509-26.486z" fill="#7a8fa5"/><path d="m462.623 98.492c-13.572 12.27-27.824 21.898-41.162 28.501-17.974-6.142-39.719-26.169-45.476-50.3 7.91-12.607 18.921-25.82 32.492-38.09 37.656-34.045 80.303-48.237 95.255-31.699s-3.453 57.543-41.109 91.588z" fill="#c7aee4"/><path d="m367.522 165.136-35.006-38.719 43.469-49.724 45.476 50.3z" fill="#ffca8b"/></g></svg>