<svg id="Capa_1" enable-background="new 0 0 512 512" height="512" viewBox="0 0 512 512" width="512" xmlns="http://www.w3.org/2000/svg"><g><g><path d="m176.023 401.447h95.98v45.853h-95.98z" fill="#6e61b6"/><path d="m176.023 401.447h34.442v45.853h-34.442z" fill="#6354b1"/><g><path d="m299.522 446.285h-151.019c-13.155 0-23.818 10.664-23.818 23.818v12.198c0 1.682 1.363 3.045 3.045 3.045h192.565c1.682 0 3.045-1.363 3.045-3.045v-12.198c0-13.154-10.663-23.818-23.818-23.818z" fill="#54469c"/></g><g><path d="m175.799 482.302v-12.198c0-13.155 10.664-23.818 23.818-23.818h-51.115c-13.155 0-23.818 10.664-23.818 23.818v12.198c0 1.682 1.363 3.045 3.045 3.045h51.115c-1.681 0-3.045-1.363-3.045-3.045z" fill="#463b84"/></g><path d="m434.025 319.288v-158.691h-72.08c-2.247 0-4.075-1.828-4.075-4.076v-55.29h-335.143c-4.812 0-8.727 3.915-8.727 8.727v219.958h406.07c4.011-4.274 8.723-7.878 13.955-10.628z" fill="#eaf6ff"/><path d="m65.701 101.231h-42.974c-4.812 0-8.727 3.915-8.727 8.727v219.958h42.975v-219.958c0-4.812 3.915-8.727 8.726-8.727z" fill="#d8ecfe"/><path d="m15 298.968h26.486c2.803 0 5.075-2.272 5.075-5.076v-123.27h-31.561z" fill="#6e61b6"/><path d="m41.486 137.141h-26.486v33.481h31.562v-28.406c0-2.802-2.273-5.075-5.076-5.075z" fill="#54469c"/><g><path d="m448.025 314.307v-153.71h-15v159.225c4.622-2.558 9.665-4.442 15-5.515z" fill="#54469c"/><path d="m507.702 76.985h-145.997l-4.835 1v78.536c0 2.803 2.272 5.075 5.075 5.075h144.979c2.803 0 5.075-2.272 5.075-5.075v-78.536z" fill="#ffe5c2"/><path d="m405.812 365.868c0-14.914 6.25-28.387 16.256-37.967h-407.068v-217.943c0-4.26 3.466-7.727 7.727-7.727h335.143v-15h-335.143c-12.532 0-22.727 10.196-22.727 22.727v269.763c0 12.531 10.195 22.726 22.727 22.726h383.085z" fill="#54469c"/></g><g><path d="m42.975 379.721v-43.305-8.516h-27.975v-217.942c0-4.26 3.466-7.727 7.727-7.727h21.602c3.169-8.739 11.553-15 21.372-15h-42.974c-12.532 0-22.727 10.196-22.727 22.727v269.763c0 12.531 10.195 22.726 22.727 22.726h42.975c-12.532 0-22.727-10.195-22.727-22.726z" fill="#463b84"/></g><path d="m371.33 211.041c-7.785 0-15.031 2.286-21.122 6.211l11.738 18.54c.404.639.428 1.417.063 2.08s-1.035 1.059-1.792 1.059h-26.319c-1.055 3.541-1.63 7.288-1.63 11.172 0 21.573 17.488 39.062 39.062 39.062 21.573 0 39.062-17.488 39.062-39.062s-17.489-39.062-39.062-39.062z" fill="#fed402"/><g fill="#fac600"><path d="m361.326 234.813c4.276-10.033 12.626-17.912 22.976-21.556-4.06-1.43-8.424-2.215-12.972-2.215-7.785 0-15.031 2.286-21.122 6.211z"/><path d="m358.214 250.102c0-3.884.573-7.632 1.628-11.172h-25.943c-1.055 3.541-1.63 7.288-1.63 11.172 0 21.573 17.489 39.062 39.062 39.062 4.549 0 8.912-.786 12.972-2.215-15.195-5.35-26.089-19.823-26.089-36.847z"/></g><g><g><path d="m458.406 479.68c-29.477 0-53.594-24.117-53.594-53.594v-60.218c0-29.477 24.117-53.594 53.594-53.594 29.477 0 53.594 24.117 53.594 53.594v60.218c0 29.477-24.117 53.594-53.594 53.594z" fill="#eaf6ff"/></g><path d="m427 426.086v-60.218c0-18.518 9.52-34.915 23.906-44.548v-8.507c-25.958 3.677-46.095 26.123-46.095 53.055v60.218c0 29.477 24.117 53.594 53.594 53.594 3.796 0 7.499-.41 11.076-1.174-24.19-5.154-42.481-26.751-42.481-52.42z" fill="#d8ecfe"/><g fill="#c4e2ff"><path d="m458.406 345.421c2.759 0 5.327.811 7.5 2.189v-34.797c-2.453-.347-4.955-.539-7.5-.539-2.545 0-5.046.192-7.5.539v34.797c2.174-1.379 4.741-2.189 7.5-2.189z"/><path d="m458.406 385.11c-2.759 0-5.327-.81-7.5-2.189v20.884c0 4.142 3.357 7.5 7.5 7.5s7.5-3.358 7.5-7.5v-20.885c-2.173 1.38-4.741 2.19-7.5 2.19z"/></g><g><path d="m458.406 386.111c-8.314 0-15.055-6.74-15.055-15.055v-11.58c0-8.314 6.74-15.055 15.055-15.055 8.314 0 15.055 6.74 15.055 15.055v11.58c-.001 8.314-6.741 15.055-15.055 15.055z" fill="#0ed290"/></g><path d="m456.891 371.056v-11.58c0-5.877 3.375-10.953 8.285-13.433-2.037-1.029-4.332-1.621-6.77-1.621-8.314 0-15.054 6.74-15.054 15.055v11.58c0 8.314 6.74 15.055 15.054 15.055 2.438 0 4.733-.593 6.77-1.621-4.91-2.482-8.285-7.559-8.285-13.435z" fill="#00c285"/></g><path d="m233.375 238.931c-.757 0-1.427-.396-1.791-1.059-.365-.663-.342-1.441.063-2.08l45.5-71.865h-103.66c-1.682 0-3.045 1.363-3.045 3.045v119.147c0 1.682 1.364 3.045 3.045 3.045h119.147c1.682 0 3.045-1.363 3.045-3.045v-47.188z" fill="#0ed290"/><g><path d="m204.935 286.119v-119.147c0-1.682 1.363-3.045 3.045-3.045h-34.493c-1.682 0-3.045 1.363-3.045 3.045v119.147c0 1.682 1.364 3.045 3.045 3.045h34.493c-1.681 0-3.045-1.364-3.045-3.045z" fill="#00c285"/></g><g><g><path d="m136.961 171.426h-55.802c-4.143 0-7.5-3.358-7.5-7.5s3.357-7.5 7.5-7.5h55.802c4.143 0 7.5 3.358 7.5 7.5s-3.357 7.5-7.5 7.5z" fill="#60b7ff"/></g><g><path d="m136.961 195.979h-55.802c-4.143 0-7.5-3.358-7.5-7.5s3.357-7.5 7.5-7.5h55.802c4.143 0 7.5 3.358 7.5 7.5s-3.357 7.5-7.5 7.5z" fill="#60b7ff"/></g><g><path d="m136.961 220.532h-55.802c-4.143 0-7.5-3.358-7.5-7.5s3.357-7.5 7.5-7.5h55.802c4.143 0 7.5 3.358 7.5 7.5s-3.357 7.5-7.5 7.5z" fill="#60b7ff"/></g></g><g><g><path d="m136.961 257.362h-55.802c-4.143 0-7.5-3.358-7.5-7.5s3.357-7.5 7.5-7.5h55.802c4.143 0 7.5 3.358 7.5 7.5s-3.357 7.5-7.5 7.5z" fill="#60b7ff"/></g><g><path d="m136.961 281.915h-55.802c-4.143 0-7.5-3.358-7.5-7.5s3.357-7.5 7.5-7.5h55.802c4.143 0 7.5 3.358 7.5 7.5s-3.357 7.5-7.5 7.5z" fill="#60b7ff"/></g><g><path d="m110.176 306.468h-29.017c-4.143 0-7.5-3.358-7.5-7.5s3.357-7.5 7.5-7.5h29.017c4.143 0 7.5 3.358 7.5 7.5s-3.358 7.5-7.5 7.5z" fill="#60b7ff"/></g></g><g><path d="m294.224 135.085-63.421 100.171c-1.284 2.028.173 4.674 2.573 4.674h126.842c2.4 0 3.857-2.647 2.573-4.674l-63.421-100.171c-1.196-1.888-3.951-1.888-5.146 0z" fill="#fd4755"/></g><g><path d="m265.303 235.256 48.744-76.989-14.677-23.182c-1.196-1.888-3.95-1.888-5.146 0l-63.421 100.171c-1.284 2.027.173 4.674 2.573 4.674h34.5c-2.4.001-3.857-2.646-2.573-4.674z" fill="#fb2b3a"/></g><g><g><path d="m390.875 156.521v-78.536h-34.005v78.536c0 2.803 2.272 5.075 5.075 5.075h34.006c-2.803.001-5.076-2.272-5.076-5.075z" fill="#fed2a4"/></g><g><path d="m481.463 114.503h-94.056c-4.143 0-7.5-3.358-7.5-7.5s3.357-7.5 7.5-7.5h94.056c4.143 0 7.5 3.358 7.5 7.5s-3.358 7.5-7.5 7.5z" fill="#fe7701"/></g><g><path d="m415.502 138.644h-28.095c-4.143 0-7.5-3.358-7.5-7.5s3.357-7.5 7.5-7.5h28.095c4.143 0 7.5 3.358 7.5 7.5s-3.357 7.5-7.5 7.5z" fill="#fe7701"/></g><g><path d="m481.463 138.644h-37.867c-4.143 0-7.5-3.358-7.5-7.5s3.357-7.5 7.5-7.5h37.867c4.143 0 7.5 3.358 7.5 7.5s-3.358 7.5-7.5 7.5z" fill="#fe7701"/></g><g><path d="m512 77.985h-155.13v-22.825c0-2.803 2.272-5.075 5.075-5.075h144.979c2.803 0 5.075 2.272 5.075 5.075v22.825z" fill="#6e61b6"/></g><g><path d="m395.951 50.084h-34.006c-2.803 0-5.075 2.272-5.075 5.075v22.826h34.006v-22.825c-.001-2.804 2.272-5.076 5.075-5.076z" fill="#6354b1"/></g></g><g><path d="m237.963 371.198h-27.901c-4.143 0-7.5-3.358-7.5-7.5s3.357-7.5 7.5-7.5h27.901c4.143 0 7.5 3.358 7.5 7.5s-3.358 7.5-7.5 7.5z" fill="#0ed290"/></g></g><g><g><g><path d="m44.229 28.964-1.015-2.311h-25.563c-5.606 0-10.151 4.545-10.151 10.151v18.76c0 5.606 4.545 10.151 10.151 10.151h25.563l1.015-2.385z" fill="#fd4755"/></g><g><path d="m17.651 48.922c-5.606 0-10.151-4.545-10.151-10.151v16.793c0 5.606 4.545 10.151 10.151 10.151h25.563l1.015-2.385v-16.794l-1.015 2.386z" fill="#fb2b3a"/></g><g><path d="m263.393 43.394-38.265-16.741-1.015 2.047v34.67l1.015 2.344 38.265-16.741c2.433-1.064 2.433-4.515 0-5.579z" fill="#54469c"/></g><g><path d="m263.393 43.394-12.815-5.607-25.45 11.134v16.793l38.265-16.741c2.433-1.064 2.433-4.515 0-5.579z" fill="#463b84"/></g></g><g><path d="m43.213 26.653h181.915v39.062h-181.915z" fill="#fed402"/></g><g><path d="m68.699 43.922v-17.269h-25.486v39.062h181.915v-16.793h-151.429c-2.761 0-5-2.239-5-5z" fill="#fac600"/></g></g></g></svg>