<svg clip-rule="evenodd" fill-rule="evenodd" height="512" stroke-linejoin="round" stroke-miterlimit="2" viewBox="0 0 48 48" width="512" xmlns="http://www.w3.org/2000/svg"><g transform="translate(-504 -288)"><g transform="scale(1.5)"><g id="FLAT"><g transform="matrix(.641 .37 -.436 .755 281.753 504.25)"><path d="m-119.099-315c0 .422-.404.765-.901.765s-.901-.343-.901-.765v-20c0-.422.404-.765.901-.765s.901.343.901.765z" fill="#616161"/></g><g transform="matrix(.641 .37 -.37 .641 302.56 468.211)"><g><circle cx="-120" cy="-346" fill="#f44336" r="11"/></g><g><path d="m-120-352.099c-.497 0-.901-.404-.901-.901s.404-.901.901-.901c4.402 0 7.901 3.499 7.901 7.901 0 .497-.404.901-.901.901s-.901-.404-.901-.901c0-3.398-2.701-6.099-6.099-6.099z" fill="#f5f5f5"/></g></g></g></g></g></svg>