<svg id="Capa_1" enable-background="new 0 0 512 512" height="512" viewBox="0 0 512 512" width="512" xmlns="http://www.w3.org/2000/svg"><path d="m294.813 452.546h-115.304l16.318-90.462h82.667z" fill="#688b96"/><path d="m278.494 362.084h-38.695l16.319 90.462h38.695z" fill="#557981"/><path d="m358.756 486.057h-243.19c-5.532 0-10.016-4.484-10.016-10.016 0-20.93 16.967-37.896 37.896-37.896h187.431c20.93 0 37.896 16.967 37.896 37.896 0 5.532-4.485 10.016-10.017 10.016z" fill="#3c5959"/><path d="m330.876 438.145h-28.429c15.398 0 27.88 12.482 27.88 27.88v20.033h28.429c5.532 0 10.017-4.485 10.017-10.016 0-20.931-16.967-37.897-37.897-37.897z" fill="#394949"/><path d="m447.753 384.313h-421.184c-10.531 0-19.069-8.537-19.069-19.069v-320.233c0-10.531 8.537-19.069 19.069-19.069h421.184c10.531 0 19.069 8.537 19.069 19.069v320.233c0 10.532-8.538 19.069-19.069 19.069z" fill="#e8f3ff"/><path d="m447.753 25.943h-19.063v339.302c0 10.532-8.537 19.069-19.069 19.069h38.131c10.532 0 19.069-8.537 19.069-19.069v-320.233c.001-10.532-8.537-19.069-19.068-19.069z" fill="#c1e2ff"/><path d="m7.5 365.244c0 10.531 8.537 19.069 19.069 19.069h421.184c10.531 0 19.069-8.537 19.069-19.069v-35.652h-459.322z" fill="#3c5959"/><path d="m428.69 365.244c0 10.532-8.537 19.069-19.069 19.069h38.131c3.291 0 6.388-.834 9.089-2.302 3.242-1.761 5.917-4.436 7.678-7.678 1.468-2.702 2.302-5.798 2.302-9.089v-35.652h-38.131z" fill="#394949"/><path d="m383.526 311.175h33.156v59.576h-33.156z" fill="#b3d8fb" transform="matrix(.707 -.707 .707 .707 -123.91 382.782)"/><circle cx="309.696" cy="250.555" fill="#69d8e4" r="108.794"/><path d="m386.625 173.626c-26.11-26.11-62.189-36.168-95.985-30.186 21.197 3.752 41.496 13.809 57.873 30.186 42.487 42.487 42.487 111.371 0 153.858-16.377 16.376-36.676 26.434-57.873 30.186 33.796 5.982 69.875-4.075 95.985-30.186 42.487-42.486 42.487-111.371 0-153.858z" fill="#29d0df"/><path d="m502.987 419.481-24.365 24.365c-2.025 2.025-5.309 2.025-7.334 0l-73.898-73.898c-2.025-2.025-2.025-5.309 0-7.334l24.365-24.365c2.025-2.025 5.309-2.025 7.334 0l73.898 73.898c2.025 2.025 2.025 5.309 0 7.334z" fill="#fc5327"/><g fill="#51be26"><circle cx="180.928" cy="128.084" r="21.853"/><circle cx="63.012" cy="246" r="21.853"/><circle cx="395.507" cy="89.908" r="21.853"/></g><path d="m314.522 232.484c4.143 0 7.5-3.358 7.5-7.5s-3.357-7.5-7.5-7.5h-21.895c-4.143 0-7.5 3.358-7.5 7.5v51.962c0 4.142 3.357 7.5 7.5 7.5h21.895c4.143 0 7.5-3.358 7.5-7.5s-3.357-7.5-7.5-7.5h-14.395v-10.981h12.78c4.143 0 7.5-3.358 7.5-7.5s-3.357-7.5-7.5-7.5h-12.78v-10.981z"/><path d="m258.572 244.342c-6.28-2.316-12.138-4.836-14.102-5.694-1.613-1.411-1.184-4.742 2.657-5.898 6.873-2.073 13.349 2.995 13.562 3.165 7.62 6.307 17.17-5.162 9.607-11.52-.512-.43-12.687-10.469-27.496-6.007-17.954 5.408-17.954 27.937-5.135 33.654.305.136 7.554 3.363 15.716 6.374 11.586 4.272 4.852 11.27-1.958 11.27-4.95 0-9.704-1.985-12.716-5.31-6.658-7.347-17.783 2.714-11.115 10.072 5.895 6.506 14.582 10.237 23.832 10.237 24.338.001 33.996-30.44 7.148-40.343z"/><path d="m364.304 217.245c-18.594 0-33.721 15.127-33.721 33.72s15.127 33.72 33.721 33.72c18.593 0 33.72-15.127 33.72-33.72s-15.128-33.72-33.72-33.72zm0 52.441c-10.322 0-18.721-8.398-18.721-18.72s8.398-18.72 18.721-18.72 18.72 8.398 18.72 18.72-8.398 18.72-18.72 18.72z"/><path d="m508.29 406.843-34.851-34.851c.58-2.19.883-4.444.883-6.748v-259.78c0-4.142-3.357-7.5-7.5-7.5s-7.5 3.358-7.5 7.5v216.628h-44.037l-8.108-8.108c40.21-61.766 13.182-145.186-55.21-171.832l27.609-27.609c4.592 2.98 10.06 4.718 15.93 4.718 16.186 0 29.354-13.168 29.354-29.353s-13.168-29.354-29.354-29.354-29.354 13.168-29.354 29.354c0 4.877 1.203 9.477 3.316 13.528l-33.737 33.737c-8.444-1.922-17.163-2.913-26.036-2.913-29.557 0-57.425 10.959-78.98 30.942l-23.697-23.697c2.08-4.026 3.262-8.588 3.262-13.423 0-16.186-13.168-29.353-29.353-29.353s-29.354 13.168-29.354 29.353c0 5.376 1.46 10.415 3.993 14.754l-77.802 77.801c-4.338-2.534-9.377-3.993-14.754-3.993-16.186 0-29.353 13.168-29.353 29.353s13.168 29.354 29.353 29.354 29.353-13.168 29.353-29.354c0-5.376-1.459-10.415-3.993-14.754l77.802-77.802c4.338 2.534 9.377 3.993 14.754 3.993 5.911 0 11.416-1.762 16.028-4.781l23.426 23.426c-35.08 42.008-35.874 103.139-2.377 146.01h-144.983c-4.142 0-7.5 3.358-7.5 7.5s3.358 7.5 7.5 7.5h158.987c39.877 35.887 98.127 39.072 141.135 10.961l15.524 15.524c-1.772 8.192 4.566 12.606 4.982 13.236h-367.079c-6.379 0-11.569-5.19-11.569-11.569v-28.152h23.008c4.142 0 7.5-3.358 7.5-7.5s-3.358-7.5-7.5-7.5h-23.008v-277.078c0-6.379 5.19-11.568 11.569-11.568h421.183c6.379 0 11.569 5.19 11.569 11.568v25.489c0 4.142 3.357 7.5 7.5 7.5s7.5-3.358 7.5-7.5v-25.489c0-14.65-11.919-26.569-26.57-26.569h-421.182c-14.65.001-26.569 11.919-26.569 26.569v320.233c0 14.65 11.919 26.569 26.569 26.569h156.274l-7.005 38.831h-32.393c-25.032 0-45.396 20.365-45.396 45.396 0 9.658 7.858 17.516 17.517 17.516h243.191c9.659 0 17.517-7.858 17.517-17.516 0-25.032-20.365-45.396-45.397-45.396h-32.393l-7.004-38.831h117.17l57.335 57.336c4.957 4.956 12.985 4.96 17.942 0l24.366-24.365c4.944-4.946 4.944-12.994-.003-17.941zm-112.783-331.288c7.914 0 14.354 6.439 14.354 14.354 0 7.914-6.44 14.353-14.354 14.353s-14.354-6.439-14.354-14.353c0-7.915 6.44-14.354 14.354-14.354zm-34.234 400.486c0 1.387-1.129 2.516-2.517 2.516h-243.19c-1.388 0-2.517-1.129-2.517-2.516 0-16.76 13.636-30.396 30.396-30.396h187.431c16.761 0 30.397 13.636 30.397 30.396zm-78.032-45.396h-92.16l7.005-38.831h78.151zm176.081-72.77-20.782-20.782h20.782zm-396.31-97.522c-7.914 0-14.353-6.439-14.353-14.354 0-7.914 6.439-14.353 14.353-14.353s14.353 6.439 14.353 14.353c0 7.915-6.439 14.354-14.353 14.354zm117.916-117.916c-7.915 0-14.354-6.439-14.354-14.353s6.439-14.353 14.354-14.353c7.914 0 14.353 6.439 14.353 14.353s-6.439 14.353-14.353 14.353zm57.142 179.744c-39.495-39.495-39.495-103.757 0-143.252 19.132-19.132 44.569-29.668 71.626-29.668 90.025 0 135.005 109.54 71.625 172.92-39.583 39.585-103.659 39.592-143.251 0zm153.859 10.607c2.16-2.16 4.215-4.385 6.169-6.668l12.589 12.589-12.838 12.838-12.588-12.588c2.288-1.962 4.514-4.017 6.668-6.171zm83.025 104.118-70.625-70.626 21.092-21.093 70.626 70.626z"/></svg>