<svg id="Layer_1" enable-background="new 0 0 512 512" viewBox="0 0 512 512" xmlns="http://www.w3.org/2000/svg"><g clip-rule="evenodd" fill-rule="evenodd"><circle cx="213.901" cy="213.9" fill="#ffd266" r="182.901"/><path d="m372.468 305.111 92.924 86.012c21.194 19.617 20.424 53.844 0 74.269-20.424 20.424-54.648 21.196-74.268 0l-86.012-92.924c27.951-16.114 51.243-39.405 67.356-67.357z" fill="#c49e6c"/><circle cx="213.901" cy="213.9" fill="#eceff1" r="143.397"/><path d="m137.081 282.948 85.787-85.787 75.475 75.474 151.627-151.627 18.794 18.794 10.265-78.915-78.916 10.264 18.794 18.795-120.564 120.565-75.475-75.474-116.849 116.85z" fill="#fd4755"/><path d="m459.742 459.743c-8.459 8.459-20.142 13.258-32.158 13.258-.295 0-.581 0-.872-.009-11.589-.22-22.143-4.85-29.712-13.028l-79.44-85.832c22.589-14.659 41.911-33.982 56.579-56.57l85.823 79.43c8.178 7.583 12.808 18.132 13.028 29.722.24 12.329-4.587 24.359-13.248 33.029zm-420.739-245.841c0 96.438 78.456 174.898 174.898 174.898 96.438 0 174.903-78.46 174.903-174.898 0-6.463-.375-12.921-1.073-19.331l-22.471 22.462c-1.678 82.041-68.928 148.269-151.358 148.269-83.479 0-151.4-67.921-151.4-151.4 0-83.48 67.921-151.4 151.4-151.4 31.02 0 60.83 9.321 86.217 26.943 21.483 14.907 38.555 34.839 49.892 58.098l17.434-17.438c-30.753-56.345-89.052-91.1-153.542-91.1-96.444-.001-174.9 78.454-174.9 174.897zm61.355 43.64c-3.117-3.121-3.117-8.192 0-11.313l116.851-116.847c3.131-3.121 8.192-3.121 11.323 0l69.809 69.819 39.619-39.619c-21.59-49.428-69.729-81.08-124.059-81.08-74.659 0-135.4 60.741-135.4 135.401s60.741 135.4 135.4 135.4c67.63 0 123.839-49.849 133.821-114.729l-43.72 43.72c-1.5 1.5-3.533 2.348-5.661 2.348-2.123 0-4.152-.848-5.652-2.348l-69.818-69.823-80.133 80.143c-1.495 1.499-3.538 2.338-5.656 2.338s-4.152-.839-5.661-2.338zm324.213-173.248-7.311-7.302 52.502-6.833-6.828 52.493-7.301-7.301c-1.5-1.5-3.543-2.338-5.661-2.338s-4.162.839-5.661 2.338l-145.97 145.968-69.809-69.818c-1.504-1.5-3.543-2.339-5.661-2.339s-4.162.839-5.661 2.339l-80.129 80.143-19.749-19.754 105.539-105.539 69.818 69.819c1.5 1.499 3.529 2.343 5.652 2.343 2.128 0 4.162-.844 5.661-2.343l120.569-120.568c3.12-3.121 3.12-8.192 0-11.308zm46.259 300.958-88.381-81.802c14.261-26.717 22.354-57.207 22.354-89.548 0-11.219-.994-22.462-2.943-33.471l48.111-48.111 13.141 13.141c2.146 2.16 5.347 2.901 8.229 1.922 2.887-.994 4.972-3.52 5.361-6.552l10.259-78.91c.319-2.46-.52-4.93-2.273-6.688-1.757-1.762-4.227-2.592-6.688-2.282l-78.92 10.273c-3.023.389-5.558 2.47-6.538 5.347-.984 2.892-.244 6.083 1.917 8.243l13.132 13.136-28.409 28.423c-15.564-26.872-37.454-49.634-63.862-66.219-30.34-19.074-65.408-29.154-101.419-29.154-105.262 0-190.902 85.64-190.902 190.902s85.64 190.902 190.902 190.902c32.341 0 62.827-8.094 89.549-22.35l81.802 88.377c10.559 11.402 25.171 17.851 41.152 18.16.397.009.786.009 1.18.009 16.238 0 32.018-6.5 43.467-17.949 11.721-11.721 18.259-28.001 17.94-44.648-.31-15.98-6.763-30.593-18.161-41.151z"/></g></svg>