<svg width="12" height="12" viewBox="0 0 12 12" fill="none" xmlns="http://www.w3.org/2000/svg">
<path d="M10.5285 3.59039C10.5331 3.69599 10.5331 3.79679 10.5331 3.90239C10.5378 7.104 8.18554 10.8 3.88391 10.8C2.61519 10.8 1.36962 10.4208 0.299999 9.71041C0.485215 9.73441 0.67043 9.74401 0.855645 9.74401C1.90674 9.74401 2.93006 9.37921 3.75889 8.7024C2.75873 8.6832 1.87896 8.0064 1.57335 7.0176C1.92526 7.0896 2.28643 7.0752 2.62908 6.9744C1.54094 6.7536 0.758407 5.76 0.753777 4.60319C0.753777 4.59359 0.753777 4.58399 0.753777 4.57439C1.0779 4.76159 1.4437 4.86719 1.81413 4.87679C0.79082 4.16639 0.471323 2.75039 1.09179 1.64158C2.2818 3.15839 4.03209 4.07519 5.91202 4.17599C5.72218 3.33599 5.98148 2.45279 6.58806 1.85758C7.52803 0.940781 9.00975 0.988781 9.89878 1.96318C10.422 1.85758 10.9267 1.65598 11.3851 1.37278C11.2092 1.93438 10.8434 2.40959 10.3572 2.71199C10.8202 2.65439 11.274 2.52479 11.7 2.33278C11.3851 2.82239 10.9869 3.24479 10.5285 3.59039Z" fill="#4E4B66"/>
</svg>
