<svg width="20" height="21" viewBox="0 0 20 21" fill="none" xmlns="http://www.w3.org/2000/svg">
<path d="M14.9333 6.20417C14.8487 6.00054 14.6869 5.83873 14.4833 5.75417C14.3831 5.71147 14.2755 5.68882 14.1666 5.6875H5.83328C5.61227 5.6875 5.40031 5.7753 5.24403 5.93158C5.08775 6.08786 4.99995 6.29982 4.99995 6.52083C4.99995 6.74185 5.08775 6.95381 5.24403 7.11009C5.40031 7.26637 5.61227 7.35417 5.83328 7.35417H12.1583L5.24162 14.2625C5.16351 14.34 5.10151 14.4321 5.05921 14.5337C5.0169 14.6352 4.99512 14.7442 4.99512 14.8542C4.99512 14.9642 5.0169 15.0731 5.05921 15.1746C5.10151 15.2762 5.16351 15.3684 5.24162 15.4458C5.31908 15.5239 5.41125 15.5859 5.5128 15.6282C5.61435 15.6706 5.72327 15.6923 5.83328 15.6923C5.94329 15.6923 6.05221 15.6706 6.15376 15.6282C6.25531 15.5859 6.34748 15.5239 6.42495 15.4458L13.3333 8.52917V14.8542C13.3333 15.0752 13.4211 15.2871 13.5774 15.4434C13.7336 15.5997 13.9456 15.6875 14.1666 15.6875C14.3876 15.6875 14.5996 15.5997 14.7559 15.4434C14.9122 15.2871 14.9999 15.0752 14.9999 14.8542V6.52083C14.9986 6.41194 14.976 6.30435 14.9333 6.20417V6.20417Z" fill="#111418"/>
</svg>
